<svg xmlns="http://www.w3.org/2000/svg" xmlns:xlink="http://www.w3.org/1999/xlink" width="500" zoomAndPan="magnify" viewBox="0 0 375 102.749999" height="137" preserveAspectRatio="xMidYMid meet" version="1.0"><path fill="#ffffff" d="M 42.855469 26.664062 C 40.90625 28.386719 38.898438 30.164062 37.863281 32.628906 C 39.929688 32.628906 42.050781 32.746094 44.117188 32.628906 C 46.070312 31.425781 47.5625 29.589844 49.570312 28.5 C 56.96875 23.792969 67.011719 23.910156 74.355469 28.730469 C 76.25 29.761719 77.625 31.539062 79.460938 32.628906 C 81.46875 32.800781 83.535156 32.628906 85.542969 32.6875 L 85.199219 31.597656 C 81.640625 26.492188 76.191406 22.875 70.28125 20.984375 C 66.265625 19.605469 61.960938 20.007812 57.773438 20.066406 C 52.378906 20.523438 47.160156 23.164062 42.855469 26.664062 " fill-opacity="1" fill-rule="nonzero"/><path fill="#ffffff" d="M 320.898438 26.835938 C 318.144531 28.328125 315.105469 30.164062 313.898438 33.203125 C 313.09375 36.300781 316.195312 38.367188 317.628906 40.777344 C 314.875 41.582031 311.777344 41.925781 309.421875 43.820312 C 307.242188 46.054688 307.644531 49.554688 307.988281 52.367188 C 308.5625 55.351562 309.367188 58.5625 311.546875 60.800781 C 314.1875 63.097656 317.570312 60.628906 320.324219 59.882812 C 320.210938 62.464844 319.921875 65.105469 320.441406 67.6875 C 321.070312 70.5 324.054688 71.644531 326.578125 72.335938 C 330.195312 73.136719 334.210938 73.597656 337.652344 71.933594 C 340.691406 70.15625 339.316406 66.195312 339.488281 63.328125 C 342.585938 64.300781 345.914062 66.425781 349.242188 65.277344 C 351.824219 63.785156 353.429688 61.03125 354.691406 58.449219 C 355.898438 55.636719 357.332031 52.136719 355.609375 49.210938 C 353.890625 47.261719 351.019531 47.203125 348.667969 46.402344 C 350.160156 44.164062 352.167969 42.269531 353.257812 39.800781 C 354.175781 37.105469 352.28125 34.523438 350.734375 32.515625 C 348.210938 29.589844 344.9375 26.664062 340.921875 26.546875 C 337.882812 26.949219 336.964844 30.277344 335.070312 32.230469 C 333.464844 29.820312 332.085938 26.894531 329.449219 25.457031 C 326.578125 24.3125 323.480469 25.574219 320.898438 26.835938 " fill-opacity="1" fill-rule="nonzero"/><path fill="#ffffff" d="M 58.058594 31.367188 C 58.058594 33.320312 58.058594 35.328125 58.117188 37.277344 C 56.511719 37.566406 54.90625 37.449219 53.296875 37.21875 C 52.78125 39.113281 53.011719 41.066406 53.011719 42.957031 C 54.734375 42.957031 56.453125 42.957031 58.175781 43.015625 C 58.117188 48.523438 58.117188 54.089844 58.117188 59.65625 C 58.058594 62.351562 59.207031 65.335938 61.730469 66.65625 C 64.429688 68.089844 67.699219 67.457031 70.28125 66.136719 C 70.742188 64.246094 71.199219 62.292969 71.660156 60.402344 C 69.824219 61.546875 67.527344 62.410156 65.347656 61.71875 C 64.199219 61.03125 64.085938 59.597656 64.085938 58.390625 C 64.085938 53.226562 64.085938 48.121094 64.085938 42.957031 L 70.167969 42.957031 C 70.167969 41.121094 70.167969 39.285156 70.222656 37.449219 C 68.160156 37.449219 66.148438 37.449219 64.085938 37.394531 C 64.027344 34.292969 64.085938 31.195312 64.085938 28.15625 C 62.019531 29.1875 60.011719 30.277344 58.058594 31.367188 " fill-opacity="1" fill-rule="nonzero"/><path fill="#ffffff" d="M 91.96875 31.367188 C 91.96875 43.246094 91.96875 55.121094 91.96875 67 C 93.976562 67 95.929688 67 97.9375 67 C 97.9375 66.136719 97.9375 65.277344 97.9375 64.417969 C 100.804688 66.828125 104.648438 68.316406 108.378906 67.34375 C 113.027344 66.367188 116.527344 62.238281 117.5 57.703125 C 118.476562 52.941406 118.246094 47.777344 116.238281 43.300781 C 114.574219 39.515625 110.730469 36.761719 106.542969 36.820312 C 103.328125 36.589844 100.347656 38.082031 97.9375 40.089844 C 97.9375 36.128906 97.9375 32.171875 97.9375 28.210938 C 95.871094 29.1875 93.921875 30.277344 91.96875 31.367188 " fill-opacity="1" fill-rule="nonzero"/><path fill="#ffffff" d="M 14.109375 44.21875 C 11.300781 49.441406 11.472656 56.210938 14.742188 61.203125 C 17.78125 65.792969 23.519531 67.917969 28.855469 67.574219 C 32.527344 67.285156 35.796875 65.277344 38.152344 62.523438 C 37.117188 61.089844 35.96875 59.710938 34.824219 58.335938 C 31.953125 61.03125 27.707031 62.808594 23.921875 61.03125 C 18.757812 59.082031 16.921875 52.308594 19.332031 47.605469 C 21.109375 43.761719 25.988281 41.636719 30.003906 43.074219 C 31.839844 43.589844 33.390625 44.851562 34.765625 46.113281 C 35.796875 44.679688 37.519531 43.476562 37.980469 41.753906 C 32.011719 34.007812 18.527344 35.902344 14.109375 44.21875 " fill-opacity="1" fill-rule="nonzero"/><path fill="#ffffff" d="M 123.582031 39.457031 C 124.328125 40.894531 125.074219 42.328125 125.820312 43.761719 C 129.320312 42.15625 133.566406 41.121094 137.238281 42.785156 C 139.589844 43.992188 139.707031 46.800781 139.589844 49.097656 C 135.804688 47.777344 131.558594 47.664062 127.714844 48.695312 C 124.902344 49.441406 122.320312 51.390625 121.347656 54.261719 C 120.082031 57.933594 120.886719 62.523438 123.984375 65.105469 C 128.460938 68.890625 135.519531 68.203125 139.589844 64.128906 C 139.589844 65.105469 139.589844 66.023438 139.648438 67 C 141.65625 67 143.609375 67 145.617188 67 C 145.617188 60.515625 145.617188 54.03125 145.617188 47.546875 C 145.617188 45.710938 145.5 43.761719 144.640625 42.097656 C 143.207031 39.113281 140.050781 37.394531 136.894531 36.933594 C 132.246094 36.300781 127.425781 36.992188 123.582031 39.457031 " fill-opacity="1" fill-rule="nonzero"/><path fill="#ffffff" d="M 156.804688 39.859375 C 156.804688 39.285156 156.804688 38.082031 156.863281 37.507812 C 154.851562 37.394531 152.84375 37.335938 150.835938 37.507812 C 150.894531 47.375 150.835938 57.1875 150.835938 67.054688 C 152.789062 67.054688 154.796875 67.054688 156.804688 67.054688 C 156.863281 61.203125 156.804688 55.292969 156.804688 49.441406 C 156.746094 46.917969 157.78125 44.105469 160.132812 42.84375 C 162.199219 41.925781 164.894531 41.925781 166.789062 43.300781 C 168.910156 45.082031 169.023438 48.121094 169.195312 50.648438 C 169.253906 56.097656 169.195312 61.605469 169.195312 67.054688 C 171.148438 67.054688 173.042969 67.054688 174.992188 67 C 174.933594 60.746094 174.992188 54.492188 174.933594 48.179688 C 174.878906 44.507812 173.789062 40.375 170.574219 38.253906 C 166.269531 35.785156 160.359375 36.359375 156.804688 39.859375 " fill-opacity="1" fill-rule="nonzero"/><path fill="#ffffff" d="M 181.53125 39.230469 C 182.105469 40.777344 182.851562 42.269531 183.542969 43.761719 C 187.039062 42.269531 191.230469 41.179688 194.902344 42.785156 C 197.3125 43.933594 197.484375 46.800781 197.367188 49.097656 C 194.039062 48.066406 190.425781 47.71875 186.984375 48.410156 C 184.285156 48.867188 181.53125 50.1875 179.984375 52.539062 C 177.976562 55.695312 178.148438 59.941406 179.984375 63.15625 C 181.820312 66.136719 185.492188 67.628906 188.878906 67.6875 C 192.03125 67.746094 194.957031 66.253906 197.3125 64.246094 C 197.3125 65.164062 197.3125 66.082031 197.367188 67 L 203.335938 67 C 203.335938 60.113281 203.394531 53.226562 203.335938 46.34375 C 203.449219 42.613281 201.039062 39.058594 197.539062 37.792969 C 192.320312 35.84375 186.410156 36.703125 181.53125 39.230469 " fill-opacity="1" fill-rule="nonzero"/><path fill="#ffffff" d="M 214.582031 39.917969 C 214.582031 39.113281 214.582031 38.3125 214.582031 37.507812 C 212.574219 37.507812 210.621094 37.507812 208.613281 37.566406 C 208.613281 47.375 208.613281 57.246094 208.613281 67.054688 C 210.621094 67.054688 212.574219 67.054688 214.582031 67.054688 C 214.582031 61.605469 214.582031 56.097656 214.582031 50.648438 C 214.582031 48.582031 214.753906 46.402344 215.84375 44.621094 C 217.507812 41.8125 221.925781 41.410156 224.277344 43.53125 C 225.882812 45.3125 226 47.835938 226.054688 50.074219 C 226.054688 55.753906 226.054688 61.433594 226.054688 67.113281 C 228.066406 67.113281 230.015625 67.113281 232.023438 67.113281 C 232.023438 61.433594 232.023438 55.808594 232.023438 50.128906 C 232.023438 47.835938 232.253906 45.253906 233.972656 43.53125 C 235.695312 41.984375 238.335938 41.984375 240.402344 42.84375 C 242.753906 44.164062 243.097656 47.089844 243.210938 49.5 C 243.269531 55.410156 243.210938 61.261719 243.269531 67.171875 C 245.21875 67.171875 247.226562 67.171875 249.179688 67.171875 C 249.179688 61.089844 249.234375 55.066406 249.179688 48.984375 C 249.0625 45.539062 248.664062 41.753906 246.136719 39.171875 C 243.726562 36.820312 240.113281 36.820312 236.957031 37.046875 C 234.148438 37.21875 231.738281 39 229.957031 41.066406 C 226.800781 35.613281 218.597656 35.5 214.582031 39.917969 " fill-opacity="1" fill-rule="nonzero"/><path fill="#ffffff" d="M 255.71875 42.328125 C 253.082031 46.515625 252.507812 51.851562 253.597656 56.613281 C 254.457031 60.800781 257.210938 64.761719 261.226562 66.480469 C 266.390625 68.777344 272.816406 67.457031 277.007812 63.726562 C 275.914062 62.410156 274.824219 61.144531 273.734375 59.882812 C 270.636719 62.007812 266.335938 63.15625 262.890625 61.203125 C 260.367188 59.769531 259.164062 56.957031 258.875 54.203125 C 265.644531 54.261719 272.417969 54.203125 279.242188 54.203125 C 279.816406 49.210938 278.84375 43.648438 275.171875 39.976562 C 269.777344 34.753906 259.734375 35.957031 255.71875 42.328125 " fill-opacity="1" fill-rule="nonzero"/><path fill="#ffffff" d="M 41.480469 37.449219 L 41.480469 67 C 43.542969 67 45.609375 67 47.675781 67 C 47.5625 65.105469 47.445312 63.269531 47.5625 61.375 C 47.960938 54.949219 47.386719 48.523438 47.675781 42.15625 C 47.734375 40.546875 47.675781 38.882812 47.445312 37.277344 C 45.496094 37.21875 43.488281 37.21875 41.480469 37.449219 " fill-opacity="1" fill-rule="nonzero"/><path fill="#ffffff" d="M 76.25 37.277344 C 76.191406 47.203125 76.25 57.074219 76.25 67 C 78.257812 67 80.265625 67 82.273438 67.054688 C 82.386719 57.128906 82.273438 47.261719 82.332031 37.335938 C 80.320312 37.277344 78.3125 37.277344 76.25 37.277344 " fill-opacity="1" fill-rule="nonzero"/><path fill="#ffffff" d="M 288.425781 51.738281 C 285.382812 56.785156 282.398438 61.890625 279.414062 67 C 281.597656 67 283.71875 67 285.898438 67.054688 C 288.023438 63.441406 290.085938 59.769531 291.921875 56.039062 C 293.875 59.710938 295.882812 63.328125 297.777344 67 C 300.070312 67.054688 302.421875 67.054688 304.777344 67 C 301.792969 61.890625 298.75 56.785156 295.710938 51.679688 C 298.292969 46.859375 301.675781 42.382812 303.800781 37.335938 C 301.734375 37.566406 299.726562 37.335938 297.660156 37.507812 C 295.25 40.320312 294.332031 44.277344 291.921875 47.148438 C 290.375 43.875 288.480469 40.777344 286.875 37.507812 C 284.636719 37.507812 282.457031 37.449219 280.277344 37.277344 C 282.457031 42.328125 285.84375 46.859375 288.425781 51.738281 " fill-opacity="1" fill-rule="nonzero"/><path fill="#ffffff" d="M 323.59375 35.613281 C 326.75 33.261719 330.765625 32.515625 334.667969 32.917969 C 333.75 34.523438 332.890625 36.128906 332.257812 37.910156 C 329.847656 35.5 326.75 37.738281 324.054688 38.140625 C 322.792969 38.023438 322.621094 36.1875 323.59375 35.613281 " fill-opacity="1" fill-rule="nonzero"/><path fill="#ffffff" d="M 340.292969 38.597656 C 339.601562 37.792969 339.546875 35.902344 340.980469 35.902344 C 344.824219 37.851562 347.0625 41.984375 347.808594 46.054688 C 346.027344 45.65625 344.191406 45.367188 342.414062 45.253906 C 343.792969 42.730469 341.609375 40.546875 340.292969 38.597656 " fill-opacity="1" fill-rule="nonzero"/><path fill="#ffffff" d="M 323.882812 45.769531 C 327.382812 45.082031 330.308594 42.613281 332.375 39.746094 C 334.039062 42.84375 337.308594 45.023438 340.691406 45.828125 C 338.167969 48.410156 337.191406 52.136719 337.539062 55.636719 C 334.382812 53.859375 330.367188 54.203125 327.09375 55.410156 C 327.324219 51.964844 326.0625 48.410156 323.882812 45.769531 " fill-opacity="1" fill-rule="nonzero"/><path fill="#ffffff" d="M 318.085938 41.464844 C 319.40625 42.730469 320.726562 44.105469 322.160156 45.253906 C 318.257812 46.800781 321.585938 51.964844 318.605469 54.089844 C 316.882812 52.941406 316.710938 50.761719 316.59375 48.867188 C 316.480469 46.230469 317.285156 43.820312 318.085938 41.464844 " fill-opacity="1" fill-rule="nonzero"/><path fill="#ffffff" d="M 338.628906 57.015625 C 342.703125 57.875 342.988281 51.738281 346.71875 51.964844 C 346.773438 52.828125 347.003906 53.6875 346.660156 54.492188 C 345.398438 57.933594 342.644531 60.574219 339.546875 62.410156 C 339.257812 60.628906 338.972656 58.792969 338.628906 57.015625 " fill-opacity="1" fill-rule="nonzero"/><path fill="#ffffff" d="M 321.128906 59.597656 C 322.792969 58.851562 324.457031 57.992188 325.949219 56.957031 C 326.234375 60.054688 329.847656 60.34375 332.085938 61.320312 C 333.175781 61.546875 333.003906 62.753906 333.0625 63.554688 C 328.703125 64.53125 324.339844 62.410156 321.128906 59.597656 " fill-opacity="1" fill-rule="nonzero"/><path fill="#ec2024" d="M 42.855469 26.664062 C 47.160156 23.164062 52.324219 20.523438 57.886719 20.007812 C 62.078125 20.007812 66.378906 19.550781 70.394531 20.925781 C 76.304688 22.820312 81.757812 26.433594 85.3125 31.539062 L 85.65625 32.628906 C 83.648438 32.574219 81.585938 32.6875 79.578125 32.574219 C 77.683594 31.539062 76.363281 29.761719 74.46875 28.671875 C 67.125 23.851562 57.085938 23.738281 49.683594 28.441406 C 47.675781 29.53125 46.183594 31.367188 44.234375 32.574219 C 42.167969 32.746094 40.042969 32.628906 37.980469 32.574219 C 38.898438 30.164062 40.960938 28.386719 42.855469 26.664062 " fill-opacity="1" fill-rule="nonzero"/><path fill="#ec2024" d="M 320.898438 26.835938 C 323.480469 25.574219 326.578125 24.367188 329.390625 25.34375 C 332.03125 26.777344 333.40625 29.703125 335.070312 32.113281 C 336.964844 30.164062 337.882812 26.835938 340.921875 26.433594 C 344.9375 26.546875 348.210938 29.476562 350.734375 32.402344 C 352.28125 34.464844 354.234375 36.992188 353.257812 39.6875 C 352.167969 42.15625 350.160156 44.046875 348.667969 46.285156 C 351.019531 47.03125 353.832031 47.148438 355.609375 49.097656 C 357.273438 52.023438 355.898438 55.523438 354.691406 58.335938 C 353.429688 60.972656 351.824219 63.671875 349.242188 65.164062 C 345.914062 66.308594 342.585938 64.246094 339.488281 63.210938 C 339.257812 66.023438 340.636719 70.039062 337.652344 71.816406 C 334.210938 73.480469 330.195312 73.023438 326.578125 72.21875 C 324.054688 71.589844 321.070312 70.382812 320.441406 67.574219 C 319.921875 64.992188 320.210938 62.351562 320.324219 59.769531 C 317.511719 60.515625 314.1875 62.980469 311.546875 60.6875 C 309.367188 58.449219 308.5625 55.238281 307.988281 52.253906 C 307.703125 49.382812 307.300781 45.941406 309.421875 43.703125 C 311.777344 41.867188 314.875 41.523438 317.628906 40.664062 C 316.25 38.253906 313.09375 36.246094 313.898438 33.089844 C 315.105469 30.105469 318.144531 28.328125 320.898438 26.835938 M 323.59375 35.613281 C 322.621094 36.1875 322.792969 38.023438 324.054688 38.082031 C 326.75 37.738281 329.90625 35.441406 332.257812 37.851562 C 332.890625 36.128906 333.695312 34.464844 334.667969 32.859375 C 330.824219 32.515625 326.75 33.261719 323.59375 35.613281 M 340.292969 38.597656 C 341.609375 40.546875 343.792969 42.730469 342.414062 45.195312 C 344.25 45.3125 346.027344 45.597656 347.808594 46 C 347.003906 41.925781 344.765625 37.792969 340.980469 35.84375 C 339.546875 35.902344 339.601562 37.792969 340.292969 38.597656 M 323.882812 45.769531 C 326.121094 48.410156 327.382812 51.964844 327.039062 55.410156 C 330.367188 54.203125 334.324219 53.859375 337.480469 55.636719 C 337.191406 52.136719 338.109375 48.351562 340.636719 45.828125 C 337.25 45.023438 333.980469 42.902344 332.316406 39.746094 C 330.308594 42.613281 327.382812 45.082031 323.882812 45.769531 M 318.085938 41.464844 C 317.226562 43.820312 316.421875 46.285156 316.59375 48.8125 C 316.710938 50.703125 316.882812 52.941406 318.605469 54.03125 C 321.585938 51.964844 318.203125 46.746094 322.160156 45.195312 C 320.726562 44.105469 319.464844 42.730469 318.085938 41.464844 M 338.628906 57.015625 C 339.03125 58.792969 339.257812 60.628906 339.488281 62.410156 C 342.585938 60.515625 345.339844 57.933594 346.601562 54.492188 C 346.945312 53.6875 346.71875 52.769531 346.660156 51.964844 C 342.929688 51.738281 342.703125 57.875 338.628906 57.015625 M 321.128906 59.597656 C 324.339844 62.410156 328.703125 64.589844 333.0625 63.613281 C 333.003906 62.753906 333.175781 61.605469 332.085938 61.375 C 329.847656 60.34375 326.234375 60.113281 325.949219 57.015625 C 324.457031 57.933594 322.792969 58.792969 321.128906 59.597656 " fill-opacity="1" fill-rule="nonzero"/><path fill="#104b84" d="M 58.058594 31.367188 C 60.011719 30.277344 62.019531 29.1875 64.027344 28.15625 C 64.027344 31.253906 64.027344 34.351562 64.027344 37.394531 C 66.09375 37.449219 68.101562 37.449219 70.167969 37.449219 C 70.167969 39.285156 70.167969 41.121094 70.109375 42.957031 L 64.027344 42.957031 C 64.027344 48.121094 64.027344 53.226562 64.027344 58.390625 C 64.027344 59.597656 64.140625 61.03125 65.289062 61.71875 C 67.46875 62.410156 69.707031 61.492188 71.601562 60.402344 C 71.140625 62.292969 70.683594 64.246094 70.222656 66.136719 C 67.640625 67.515625 64.371094 68.144531 61.675781 66.65625 C 59.152344 65.335938 58.003906 62.351562 58.058594 59.65625 C 58.058594 54.089844 58.003906 48.582031 58.117188 43.015625 C 56.394531 42.957031 54.675781 42.957031 52.953125 42.957031 C 52.953125 41.066406 52.722656 39.113281 53.242188 37.21875 C 54.847656 37.449219 56.453125 37.566406 58.058594 37.277344 C 58.058594 35.328125 58.058594 33.320312 58.058594 31.367188 " fill-opacity="1" fill-rule="nonzero"/><path fill="#104b84" d="M 91.96875 31.367188 C 93.921875 30.277344 95.871094 29.1875 97.9375 28.210938 C 97.992188 32.171875 97.9375 36.128906 97.9375 40.089844 C 100.347656 38.082031 103.328125 36.53125 106.542969 36.820312 C 110.730469 36.761719 114.574219 39.515625 116.238281 43.300781 C 118.246094 47.777344 118.476562 52.941406 117.5 57.703125 C 116.46875 62.238281 113.027344 66.367188 108.378906 67.34375 C 104.648438 68.375 100.804688 66.828125 97.9375 64.417969 C 97.9375 65.277344 97.9375 66.136719 97.9375 67 C 95.929688 67 93.921875 67 91.96875 67 C 91.96875 55.121094 91.96875 43.246094 91.96875 31.367188 M 97.9375 45.828125 C 97.9375 50.074219 97.9375 54.261719 97.9375 58.507812 C 99.484375 60.054688 101.320312 61.546875 103.558594 62.0625 C 106.3125 62.867188 109.582031 61.71875 110.902344 59.136719 C 112.683594 55.867188 112.511719 51.964844 111.878906 48.410156 C 111.304688 45.539062 109.238281 42.5 106.082031 42.382812 C 102.871094 41.753906 100.003906 43.589844 97.9375 45.828125 " fill-opacity="1" fill-rule="nonzero"/><path fill="#104b84" d="M 14.109375 44.21875 C 18.527344 35.902344 32.011719 34.007812 37.921875 41.753906 C 37.460938 43.53125 35.796875 44.679688 34.707031 46.113281 C 33.332031 44.851562 31.839844 43.589844 29.945312 43.074219 C 25.929688 41.636719 21.109375 43.761719 19.273438 47.605469 C 16.863281 52.308594 18.699219 59.082031 23.863281 61.03125 C 27.707031 62.753906 31.898438 61.03125 34.765625 58.335938 C 35.914062 59.710938 37.003906 61.089844 38.09375 62.523438 C 35.742188 65.277344 32.472656 67.285156 28.796875 67.574219 C 23.460938 67.972656 17.667969 65.792969 14.683594 61.203125 C 11.472656 56.269531 11.300781 49.441406 14.109375 44.21875 " fill-opacity="1" fill-rule="nonzero"/><path fill="#104b84" d="M 123.582031 39.457031 C 127.425781 36.992188 132.246094 36.300781 136.722656 36.992188 C 139.878906 37.449219 143.089844 39.171875 144.46875 42.15625 C 145.386719 43.820312 145.445312 45.769531 145.5 47.605469 C 145.5 54.089844 145.5 60.574219 145.5 67 C 143.492188 67 141.542969 67 139.535156 67 C 139.535156 66.023438 139.476562 65.105469 139.476562 64.128906 C 135.402344 68.203125 128.34375 68.890625 123.871094 65.105469 C 120.773438 62.523438 119.96875 57.933594 121.230469 54.261719 C 122.148438 51.449219 124.789062 49.5 127.601562 48.695312 C 131.5 47.664062 135.691406 47.777344 139.476562 49.097656 C 139.648438 46.800781 139.476562 43.992188 137.125 42.785156 C 133.507812 41.121094 129.207031 42.15625 125.707031 43.761719 C 125.074219 42.328125 124.328125 40.894531 123.582031 39.457031 M 127.484375 54.71875 C 125.417969 56.554688 126.164062 60.34375 128.574219 61.546875 C 132.246094 63.382812 136.835938 61.835938 139.304688 58.738281 C 139.648438 57.300781 139.417969 55.753906 139.417969 54.261719 C 137.699219 53.628906 135.976562 53.171875 134.140625 53.171875 C 131.902344 53.054688 129.261719 53 127.484375 54.71875 " fill-opacity="1" fill-rule="nonzero"/><path fill="#104b84" d="M 156.804688 39.859375 C 160.359375 36.359375 166.269531 35.84375 170.574219 38.253906 C 173.84375 40.375 174.878906 44.507812 174.933594 48.179688 C 174.992188 54.433594 174.933594 60.6875 174.992188 67 C 173.042969 67.054688 171.148438 67.054688 169.195312 67.054688 C 169.195312 61.605469 169.195312 56.097656 169.195312 50.648438 C 169.023438 48.121094 168.910156 45.082031 166.789062 43.300781 C 164.894531 41.925781 162.253906 41.867188 160.132812 42.84375 C 157.78125 44.105469 156.746094 46.917969 156.804688 49.441406 C 156.746094 55.292969 156.863281 61.203125 156.804688 67.054688 C 154.796875 67.054688 152.84375 67.054688 150.835938 67.054688 C 150.835938 57.1875 150.894531 47.375 150.835938 37.507812 C 152.84375 37.335938 154.851562 37.394531 156.863281 37.507812 C 156.804688 38.082031 156.804688 39.230469 156.804688 39.859375 " fill-opacity="1" fill-rule="nonzero"/><path fill="#104b84" d="M 181.53125 39.230469 C 186.410156 36.703125 192.320312 35.84375 197.484375 37.792969 C 200.984375 39.113281 203.394531 42.613281 203.277344 46.34375 C 203.335938 53.226562 203.277344 60.113281 203.277344 67 L 197.3125 67 C 197.3125 66.082031 197.3125 65.164062 197.3125 64.246094 C 194.957031 66.195312 192.03125 67.746094 188.878906 67.6875 C 185.433594 67.628906 181.820312 66.136719 179.984375 63.15625 C 178.148438 59.941406 177.976562 55.695312 179.984375 52.539062 C 181.53125 50.1875 184.285156 48.867188 186.984375 48.410156 C 190.425781 47.71875 194.039062 48.066406 197.367188 49.097656 C 197.484375 46.800781 197.3125 43.933594 194.902344 42.785156 C 191.230469 41.179688 187.039062 42.269531 183.542969 43.761719 C 182.851562 42.269531 182.105469 40.777344 181.53125 39.230469 M 187.960938 53.34375 C 186.582031 53.6875 185.203125 54.492188 184.515625 55.808594 C 183.597656 57.933594 184.515625 60.746094 186.695312 61.664062 C 189.910156 63.15625 193.753906 62.0625 196.277344 59.769531 C 198 58.507812 197.3125 56.097656 197.195312 54.320312 C 194.328125 52.941406 191 52.941406 187.960938 53.34375 " fill-opacity="1" fill-rule="nonzero"/><path fill="#104b84" d="M 214.582031 39.917969 C 218.597656 35.558594 226.800781 35.613281 229.957031 40.949219 C 231.738281 38.882812 234.144531 37.105469 236.957031 36.933594 C 240.113281 36.703125 243.726562 36.703125 246.136719 39.058594 C 248.664062 41.636719 249.0625 45.425781 249.179688 48.867188 C 249.234375 54.949219 249.179688 60.972656 249.179688 67.054688 C 247.226562 67.054688 245.21875 67.054688 243.269531 67.054688 C 243.210938 61.144531 243.328125 55.292969 243.210938 49.382812 C 243.097656 46.972656 242.753906 44.046875 240.402344 42.730469 C 238.335938 41.867188 235.695312 41.867188 233.972656 43.417969 C 232.253906 45.136719 232.023438 47.71875 232.023438 50.015625 C 232.023438 55.695312 232.023438 61.320312 232.023438 67 C 230.015625 67 228.066406 67 226.054688 67 C 226.054688 61.320312 226.054688 55.636719 226.054688 49.957031 C 226 47.71875 225.828125 45.136719 224.277344 43.417969 C 221.867188 41.292969 217.507812 41.695312 215.84375 44.507812 C 214.753906 46.285156 214.582031 48.464844 214.582031 50.53125 C 214.582031 56.039062 214.582031 61.492188 214.582031 66.941406 C 212.574219 66.941406 210.621094 66.941406 208.613281 66.941406 C 208.613281 57.128906 208.613281 47.261719 208.613281 37.449219 C 210.621094 37.394531 212.574219 37.394531 214.582031 37.394531 C 214.582031 38.253906 214.582031 39.058594 214.582031 39.917969 " fill-opacity="1" fill-rule="nonzero"/><path fill="#104b84" d="M 255.71875 42.328125 C 259.734375 35.957031 269.777344 34.753906 275.171875 40.089844 C 278.84375 43.761719 279.816406 49.328125 279.300781 54.320312 C 272.53125 54.320312 265.703125 54.375 258.933594 54.320312 C 259.277344 57.074219 260.480469 59.882812 262.949219 61.320312 C 266.390625 63.269531 270.695312 62.121094 273.792969 60 C 274.882812 61.261719 275.972656 62.582031 277.0625 63.84375 C 272.875 67.574219 266.449219 68.890625 261.285156 66.539062 C 257.269531 64.820312 254.515625 60.859375 253.652344 56.671875 C 252.507812 51.851562 253.082031 46.515625 255.71875 42.328125 M 261.226562 44.164062 C 259.90625 45.539062 259.507812 47.433594 258.875 49.15625 C 260.539062 49.730469 262.261719 49.554688 263.980469 49.554688 C 267.195312 49.5 270.40625 49.613281 273.621094 49.5 C 273.335938 47.949219 273.105469 46.34375 272.128906 45.023438 C 269.777344 41.410156 263.980469 40.949219 261.226562 44.164062 " fill-opacity="1" fill-rule="nonzero"/><path fill="#104b84" d="M 41.480469 37.449219 C 43.488281 37.21875 45.4375 37.21875 47.445312 37.277344 C 47.675781 38.882812 47.734375 40.546875 47.675781 42.15625 C 47.332031 48.582031 47.90625 55.007812 47.5625 61.375 C 47.445312 63.269531 47.5625 65.105469 47.675781 67 C 45.609375 67 43.542969 67 41.480469 67 Z M 41.480469 37.449219 " fill-opacity="1" fill-rule="nonzero"/><path fill="#104b84" d="M 76.25 37.277344 C 78.257812 37.277344 80.265625 37.277344 82.332031 37.335938 C 82.273438 47.261719 82.386719 57.128906 82.273438 67.054688 C 80.265625 67 78.257812 67 76.25 67 C 76.25 57.074219 76.25 47.203125 76.25 37.277344 " fill-opacity="1" fill-rule="nonzero"/><path fill="#104b84" d="M 288.425781 51.738281 C 285.84375 46.859375 282.515625 42.328125 280.277344 37.277344 C 282.457031 37.449219 284.695312 37.507812 286.875 37.507812 C 288.539062 40.777344 290.375 43.875 291.921875 47.148438 C 294.332031 44.21875 295.25 40.320312 297.660156 37.507812 C 299.726562 37.335938 301.734375 37.566406 303.800781 37.335938 C 301.675781 42.382812 298.292969 46.859375 295.710938 51.679688 C 298.75 56.785156 301.792969 61.890625 304.777344 67 C 302.421875 67.054688 300.128906 67.054688 297.777344 67 C 295.882812 63.328125 293.875 59.65625 291.925781 56.039062 C 290.085938 59.828125 288.023438 63.441406 285.898438 67.054688 C 283.71875 67 281.539062 67.054688 279.414062 67 C 282.398438 61.890625 285.324219 56.785156 288.425781 51.738281 " fill-opacity="1" fill-rule="nonzero"/></svg>