<svg xmlns="http://www.w3.org/2000/svg" xmlns:xlink="http://www.w3.org/1999/xlink" width="569" zoomAndPan="magnify" viewBox="0 0 426.75 299.999988" height="400" preserveAspectRatio="xMidYMid meet" version="1.0"><path fill="#03264c" d="M 404.664062 145.191406 C 404.664062 73.863281 316.074219 15.734375 206.792969 15.734375 C 97.511719 15.734375 8.921875 73.863281 8.921875 145.191406 C 8.921875 147.039062 8.898438 152.117188 8.898438 152.761719 C 8.898438 228.429688 86.320312 289.699219 206.769531 289.699219 C 327.957031 289.699219 404.664062 228.429688 404.664062 152.761719 Z M 404.664062 145.191406 " fill-opacity="1" fill-rule="nonzero"/><path fill="#eac926" d="M 397.089844 145.132812 C 397.089844 212.378906 311.914062 266.886719 206.832031 266.886719 C 101.746094 266.886719 16.574219 212.378906 16.574219 145.132812 C 16.574219 77.886719 101.746094 23.378906 206.832031 23.378906 C 311.914062 23.378906 397.089844 77.886719 397.089844 145.132812 " fill-opacity="1" fill-rule="nonzero"/><path fill="#ffffff" d="M 143.667969 106.71875 C 143.574219 106.902344 141.660156 108.867188 142.90625 110.457031 C 145.90625 114.289062 155.179688 116.503906 164.570312 114.382812 C 170.152344 113.136719 177.304688 107.433594 184.25 101.917969 C 191.769531 95.941406 199.222656 89.964844 206.71875 87.589844 C 214.65625 85.074219 219.730469 86.136719 223.097656 87.171875 C 226.789062 88.28125 231.105469 90.703125 238.023438 95.898438 C 251.035156 105.679688 303.40625 151.394531 312.425781 159.289062 C 319.714844 155.988281 352.082031 142.050781 396.078125 132.359375 C 392.246094 108.890625 377.992188 87.425781 356.351562 69.867188 C 326.199219 82.535156 289.355469 89.136719 253.296875 71.550781 C 253.113281 71.480469 233.617188 62.25 214.378906 62.6875 C 185.792969 63.359375 173.40625 75.726562 160.300781 88.835938 Z M 143.667969 106.71875 " fill-opacity="1" fill-rule="nonzero"/><path fill="#ffffff" d="M 310.277344 164.253906 C 309.65625 163.699219 248.726562 110.367188 234.929688 99.984375 C 226.949219 93.984375 222.496094 92.460938 217.835938 91.859375 C 215.414062 91.539062 212.046875 92 209.714844 92.644531 C 203.300781 94.398438 194.90625 100.007812 187.453125 105.914062 C 179.722656 112.050781 172.457031 117.84375 165.699219 119.367188 C 157.070312 121.304688 146.527344 119.023438 141.726562 115.769531 C 139.765625 114.453125 138.40625 112.953125 137.738281 111.40625 C 135.960938 107.277344 139.238281 104 139.765625 103.445312 L 156.585938 85.261719 C 158.546875 83.300781 160.507812 81.359375 162.515625 79.421875 C 157.09375 80.136719 152.0625 81.523438 147.195312 82.882812 C 141.105469 84.589844 135.246094 86.230469 129.316406 86.230469 C 126.847656 86.230469 113.582031 84.058594 111.066406 83.367188 C 95.84375 79.191406 82.484375 75.152344 62.550781 65.828125 C 38.652344 83.621094 22.664062 105.890625 18.050781 130.398438 C 21.488281 131.296875 27.023438 132.960938 29.332031 133.46875 C 83.429688 145.492188 100.292969 157.90625 103.339844 160.492188 C 106.640625 156.820312 111.414062 154.46875 116.742188 154.46875 C 122.742188 154.46875 128.117188 157.492188 131.394531 162.128906 C 134.484375 159.683594 138.773438 157.582031 144.289062 157.582031 C 146.804688 157.582031 149.410156 158.042969 152.039062 158.945312 C 158.132812 161.042969 161.292969 165.105469 162.929688 168.773438 C 164.984375 167.851562 167.496094 167.160156 170.449219 167.183594 C 173.355469 167.183594 176.402344 167.851562 179.449219 169.167969 C 189.414062 173.460938 190.984375 183.246094 190.058594 190.628906 C 190.773438 190.535156 191.488281 190.515625 192.207031 190.515625 C 204.039062 190.515625 213.636719 200.136719 213.636719 211.976562 C 213.636719 215.644531 212.691406 219.082031 211.078125 222.105469 C 214.285156 223.90625 222.496094 228.011719 229.695312 227.089844 C 235.4375 226.351562 237.628906 224.390625 238.414062 223.28125 C 238.945312 222.519531 239.523438 221.644531 238.992188 221 L 223.71875 204.035156 C 223.71875 204.035156 221.203125 201.660156 222.035156 200.738281 C 222.886719 199.789062 224.433594 201.152344 225.542969 202.074219 C 233.316406 208.558594 242.796875 218.367188 242.796875 218.367188 C 242.960938 218.460938 243.582031 219.707031 247.089844 220.328125 C 250.109375 220.859375 255.464844 220.558594 259.15625 217.511719 C 260.078125 216.753906 261.023438 215.78125 261.808594 214.789062 C 261.738281 214.835938 261.691406 214.90625 261.644531 214.929688 C 265.542969 209.921875 261.207031 204.867188 261.207031 204.867188 L 243.375 184.859375 C 243.375 184.859375 240.835938 182.507812 241.691406 181.558594 C 242.476562 180.730469 244.113281 181.976562 245.21875 182.898438 C 250.871094 187.628906 258.832031 195.613281 266.46875 203.113281 C 267.96875 204.222656 274.679688 208.351562 283.5625 202.511719 C 288.960938 198.984375 290.046875 194.621094 289.882812 191.34375 C 289.515625 187.007812 286.125 183.914062 286.125 183.914062 L 261.785156 159.429688 C 261.785156 159.429688 259.222656 157.238281 260.125 156.128906 C 260.863281 155.207031 262.546875 156.542969 263.628906 157.46875 C 271.382812 163.953125 292.375 183.199219 292.375 183.199219 C 292.675781 183.40625 299.917969 188.574219 308.894531 182.875 C 312.101562 180.820312 314.152344 177.730469 314.316406 174.152344 C 314.660156 167.96875 310.277344 164.253906 310.277344 164.253906 " fill-opacity="1" fill-rule="nonzero"/><path fill="#ffffff" d="M 192.203125 195.296875 C 188.417969 195.25 184.289062 197.488281 183.757812 197.164062 C 183.460938 196.957031 183.988281 195.457031 184.335938 194.578125 C 184.707031 193.703125 189.664062 178.75 177.554688 173.558594 C 168.28125 169.566406 162.628906 174.042969 160.667969 176.074219 C 160.160156 176.601562 159.929688 176.558594 159.859375 175.886719 C 159.675781 173.1875 158.476562 165.894531 150.46875 163.472656 C 139.027344 159.964844 131.691406 167.949219 129.820312 170.832031 C 128.992188 164.328125 123.476562 159.25 116.71875 159.25 C 109.382812 159.25 103.429688 165.179688 103.429688 172.519531 C 103.429688 179.855469 109.382812 185.789062 116.71875 185.789062 C 120.269531 185.789062 123.523438 184.378906 125.898438 182.070312 C 125.96875 182.140625 126.015625 182.257812 125.96875 182.511719 C 125.414062 185.789062 124.378906 197.742188 136.882812 202.585938 C 141.886719 204.527344 146.15625 203.09375 149.683594 200.601562 C 150.746094 199.863281 150.90625 200.164062 150.769531 201.15625 C 150.308594 204.226562 150.882812 210.804688 160.089844 214.542969 C 167.101562 217.378906 171.253906 214.472656 173.953125 211.957031 C 175.132812 210.871094 175.453125 211.058594 175.523438 212.71875 C 175.847656 221.601562 183.230469 228.664062 192.203125 228.664062 C 201.429688 228.664062 208.90625 221.210938 208.929688 211.980469 C 208.90625 202.773438 201.429688 195.386719 192.203125 195.296875 " fill-opacity="1" fill-rule="nonzero"/><path fill="#03264c" d="M 192.203125 227.511719 C 183.828125 227.511719 177.046875 221.003906 176.722656 212.71875 C 176.699219 212.003906 176.628906 210.109375 175.039062 210.109375 C 174.371094 210.109375 173.816406 210.503906 173.148438 211.101562 C 171.300781 212.8125 168.972656 214.542969 165.535156 214.542969 C 163.988281 214.542969 162.304688 214.171875 160.527344 213.457031 C 151.691406 209.878906 151.578125 203.8125 151.945312 201.363281 C 152.039062 200.71875 152.0625 200.050781 151.621094 199.496094 L 151.09375 199.011719 L 150.539062 199.011719 C 150.078125 199.011719 149.640625 199.195312 148.992188 199.632812 C 146.433594 201.433594 143.988281 202.289062 141.496094 202.289062 C 140.132812 202.289062 138.726562 202.011719 137.296875 201.480469 C 125.667969 196.957031 126.59375 185.972656 127.144531 182.671875 C 127.238281 182.003906 127.054688 181.496094 126.636719 181.148438 L 125.808594 180.480469 L 125.046875 181.21875 C 122.785156 183.410156 119.808594 184.585938 116.695312 184.585938 C 110.027344 184.585938 104.605469 179.164062 104.628906 172.519531 C 104.628906 165.847656 110.050781 160.449219 116.71875 160.449219 C 122.738281 160.449219 127.859375 164.972656 128.621094 170.996094 L 129.039062 174.25 L 130.8125 171.503906 C 131.019531 171.179688 135.890625 163.796875 144.863281 163.820312 C 146.570312 163.820312 148.324219 164.09375 150.101562 164.648438 C 157.253906 166.839844 158.476562 173.328125 158.660156 176.027344 C 158.773438 177.59375 159.90625 177.664062 160.136719 177.664062 C 160.757812 177.664062 161.21875 177.273438 161.519531 176.925781 C 162.882812 175.519531 165.8125 173.1875 170.402344 173.1875 C 172.5 173.1875 174.738281 173.695312 177.070312 174.6875 C 188.441406 179.558594 183.273438 194.003906 183.230469 194.164062 C 182.261719 196.566406 182.214844 197.625 183.136719 198.226562 L 183.574219 198.433594 L 183.898438 198.433594 C 184.40625 198.433594 185.050781 198.203125 186.113281 197.855469 C 187.660156 197.324219 189.988281 196.519531 192.179688 196.519531 C 200.738281 196.609375 207.707031 203.578125 207.683594 212.050781 C 207.707031 220.5625 200.738281 227.511719 192.203125 227.511719 M 312.628906 157.886719 C 293.847656 141.503906 250.476562 103.773438 238.734375 94.957031 C 232.023438 89.902344 227.453125 87.25 223.417969 86.050781 C 221.617188 85.496094 219.101562 84.871094 215.894531 84.871094 C 212.898438 84.871094 209.691406 85.402344 206.34375 86.488281 C 198.753906 88.886719 191.1875 94.910156 183.875 100.726562 L 183.503906 101.027344 C 176.675781 106.449219 169.640625 112.058594 164.3125 113.234375 C 161.980469 113.765625 159.605469 114.042969 157.207031 114.042969 C 151.230469 114.042969 145.878906 112.3125 143.871094 109.75 C 143.546875 109.335938 143.757812 108.640625 144.539062 107.648438 L 144.632812 107.511719 L 161.152344 89.71875 C 174.09375 76.773438 186.296875 64.566406 214.417969 63.917969 C 214.878906 63.917969 215.367188 63.894531 215.828125 63.894531 C 233.335938 63.894531 250.824219 71.742188 252.785156 72.640625 C 269.210938 80.648438 286.144531 84.710938 303.167969 84.734375 C 320.910156 84.734375 339.226562 80.351562 358.492188 71.464844 C 356.347656 69.664062 354.109375 67.886719 351.800781 66.15625 C 334.890625 73.496094 318.765625 77.210938 303.238281 77.1875 C 287.367188 77.164062 271.496094 73.359375 256.082031 65.835938 C 255.277344 65.441406 235.945312 56.328125 215.851562 56.328125 C 215.320312 56.328125 214.789062 56.328125 214.257812 56.351562 C 190.632812 56.902344 177.324219 65.304688 168.394531 72.640625 C 159.699219 72.851562 152.175781 74.949219 145.507812 76.820312 C 139.558594 78.480469 134.414062 79.910156 129.382812 79.910156 C 127.308594 79.910156 123.59375 79.726562 123.246094 79.703125 C 117.480469 79.519531 88.386719 72.386719 65.25 63.640625 C 62.894531 65.304688 60.613281 67.035156 58.398438 68.789062 C 82.574219 78.710938 111.988281 86.371094 121.261719 86.972656 C 123.847656 87.132812 126.59375 87.433594 129.359375 87.433594 C 135.496094 87.433594 141.632812 85.703125 147.5625 84.042969 C 151.070312 83.050781 154.945312 81.988281 159.003906 81.203125 C 157.921875 82.265625 156.835938 83.351562 155.753906 84.433594 L 138.980469 102.597656 C 137.664062 103.933594 134.804688 107.488281 136.671875 111.871094 C 137.433594 113.648438 138.957031 115.335938 141.078125 116.765625 C 145.070312 119.464844 152.246094 121.289062 158.890625 121.289062 C 161.40625 121.289062 163.804688 121.035156 165.996094 120.550781 C 173.03125 118.980469 180.414062 113.097656 188.210938 106.886719 C 194.441406 101.925781 203.277344 95.648438 210.058594 93.804688 C 211.949219 93.296875 214.28125 92.972656 216.148438 92.972656 C 216.703125 92.972656 217.234375 92.996094 217.71875 93.066406 C 222.195312 93.640625 226.53125 95.164062 234.238281 100.957031 C 248.007812 111.296875 308.960938 164.625 309.535156 165.15625 C 309.582031 165.203125 313.457031 168.550781 313.207031 174.109375 C 313.066406 177.226562 311.335938 179.972656 308.335938 181.886719 C 305.730469 183.527344 303.054688 184.378906 300.332031 184.378906 C 296.25 184.378906 293.457031 182.464844 293.273438 182.324219 C 293.042969 182.140625 272.164062 162.988281 264.480469 156.550781 C 263.257812 155.535156 262.058594 154.632812 260.859375 154.632812 C 260.214844 154.632812 259.660156 154.910156 259.265625 155.394531 C 258.066406 156.894531 259.40625 158.949219 260.996094 160.3125 L 285.382812 184.839844 C 285.40625 184.863281 288.429688 187.703125 288.75 191.441406 C 288.933594 195.503906 286.996094 198.894531 282.960938 201.550781 C 280.078125 203.441406 277.167969 204.410156 274.308594 204.410156 C 270.570312 204.410156 267.941406 202.703125 267.363281 202.3125 L 263.859375 198.871094 C 257.46875 192.570312 250.871094 186.066406 246.023438 182.027344 C 244.847656 181.058594 243.578125 180.132812 242.378906 180.132812 C 241.804688 180.132812 241.25 180.363281 240.835938 180.78125 C 240.28125 181.402344 239.910156 182.488281 241.273438 184.3125 C 241.828125 185.070312 242.496094 185.695312 242.496094 185.695312 L 260.304688 205.679688 C 260.445312 205.863281 263.972656 210.042969 260.699219 214.21875 L 260.074219 215.003906 C 259.542969 215.601562 258.96875 216.132812 258.414062 216.59375 C 255.367188 219.085938 251.332031 219.363281 249.714844 219.363281 C 248.863281 219.363281 248.03125 219.296875 247.292969 219.15625 C 245.539062 218.832031 244.363281 218.347656 243.789062 217.679688 L 243.578125 217.472656 C 242.609375 216.457031 233.636719 207.296875 226.207031 201.109375 C 225.238281 200.28125 224.015625 199.242188 222.746094 199.242188 C 222.125 199.242188 221.570312 199.496094 221.132812 199.957031 C 219.65625 201.570312 221.871094 203.972656 222.816406 204.847656 L 237.996094 221.601562 C 237.972656 221.765625 237.789062 222.109375 237.421875 222.640625 C 236.867188 223.378906 235.042969 225.226562 229.53125 225.917969 C 228.882812 225.988281 228.191406 226.035156 227.523438 226.035156 C 221.847656 226.035156 215.78125 223.289062 212.667969 221.625 C 214.097656 218.625 214.8125 215.324219 214.8125 212.003906 C 214.8125 199.496094 204.683594 189.339844 192.179688 189.339844 C 191.925781 189.339844 191.625 189.339844 191.371094 189.363281 C 191.789062 183.664062 190.980469 172.863281 179.882812 168.085938 C 176.699219 166.703125 173.515625 166.011719 170.425781 166.011719 C 168.003906 166.011719 165.671875 166.425781 163.480469 167.257812 C 161.195312 162.804688 157.367188 159.550781 152.382812 157.839844 C 149.640625 156.894531 146.894531 156.410156 144.261719 156.410156 C 139.648438 156.410156 135.40625 157.773438 131.597656 160.472656 C 127.976562 155.949219 122.484375 153.273438 116.695312 153.273438 C 111.640625 153.273438 106.773438 155.304688 103.175781 158.855469 C 98.445312 155.257812 79.714844 143.347656 29.535156 131.949219 C 27.113281 131.394531 21.53125 129.804688 18.117188 128.789062 C 17.539062 131.511719 17.125 134.257812 16.824219 137.027344 C 16.824219 137.027344 26.074219 139.242188 27.898438 139.65625 C 79.136719 151.035156 96.070312 162.894531 98.953125 165.109375 C 97.984375 167.441406 97.476562 169.957031 97.476562 172.496094 C 97.476562 183.085938 106.082031 191.71875 116.671875 191.71875 C 117.871094 191.71875 119.046875 191.625 120.203125 191.394531 C 121.792969 199.195312 126.890625 205.101562 134.691406 208.125 C 136.972656 209.003906 139.28125 209.441406 141.519531 209.441406 C 142.972656 209.441406 144.449219 209.257812 145.902344 208.886719 C 147.332031 212.558594 150.585938 217.101562 157.828125 220.035156 C 160.367188 221.050781 162.902344 221.601562 165.371094 221.601562 C 167.378906 221.601562 169.363281 221.257812 171.230469 220.542969 C 174.691406 228.988281 182.953125 234.59375 192.15625 234.59375 C 198.246094 234.59375 204.105469 232.125 208.375 227.71875 C 212.019531 229.75 219.75 233.417969 227.546875 233.441406 C 228.5625 233.441406 229.507812 233.371094 230.453125 233.257812 C 238.203125 232.289062 241.804688 229.265625 243.464844 226.886719 C 243.765625 226.472656 244.042969 226.035156 244.273438 225.59375 C 246.09375 226.125 248.125 226.542969 250.410156 226.542969 C 254.628906 226.542969 258.691406 225.109375 262.796875 222.109375 C 266.835938 219.203125 269.695312 215.027344 270.109375 211.472656 C 270.109375 211.425781 270.132812 211.378906 270.132812 211.308594 C 271.496094 211.585938 272.878906 211.75 274.285156 211.75 C 278.644531 211.75 282.914062 210.386719 287.019531 207.710938 C 294.910156 202.542969 296.292969 195.757812 296.15625 191.347656 C 297.539062 191.648438 298.949219 191.789062 300.355469 191.789062 C 304.4375 191.789062 308.453125 190.542969 312.28125 188.117188 C 317.171875 184.980469 320.125 180.203125 320.566406 174.617188 C 320.863281 170.832031 319.941406 167.003906 317.933594 163.726562 C 331.152344 158.027344 361.398438 146.996094 396.996094 138.964844 C 396.789062 136.195312 396.371094 133.472656 395.886719 130.773438 C 352.816406 140.371094 320.679688 154.289062 312.628906 157.886719 " fill-opacity="1" fill-rule="nonzero"/></svg>